<svg width="1em" height="1em" viewBox="0 0 24 24" class="Twilio-Icon-Content">
  <path d="M11.984 15c-.708 0-1.3-.232-1.773-.695-.474-.464-.711-1.045-.711-1.742V6.609c0-.718.242-1.333.727-1.843.484-.51 1.07-.766 1.757-.766h.11c.677 0 1.247.253 1.71.758.464.505.696 1.122.696 1.851v5.954c0 .708-.227 1.291-.68 1.75-.453.458-1.028.687-1.726.687h-.11zM10.5 6.61v5.952c0 .428.138.774.414 1.04.276.265.633.398 1.07.398h.11c.427 0 .768-.133 1.023-.398.255-.266.383-.612.383-1.04V6.61c0-.458-.133-.84-.398-1.148A1.275 1.275 0 0012.094 5h-.11c-.406 0-.755.156-1.046.469a1.61 1.61 0 00-.438 1.14zm6 2.89a.48.48 0 01.352.148A.48.48 0 0117 10v2.078c0 1.125-.13 2.04-.39 2.742-.261.703-.597 1.253-1.008 1.649a3.288 3.288 0 01-1.368.812c-.5.146-.994.219-1.484.219h-.25V19H15a.48.48 0 01.352.148.48.48 0 01.148.352.48.48 0 01-.148.352A.48.48 0 0115 20H9a.48.48 0 01-.352-.148.48.48 0 01-.148-.352.48.48 0 01.148-.352A.48.48 0 019 19h2.5v-1.5h-.234c-.709 0-1.328-.12-1.86-.36a3.474 3.474 0 01-1.336-1.054c-.36-.464-.627-1.031-.804-1.703C7.089 13.71 7 12.943 7 12.078V10a.48.48 0 01.148-.352A.48.48 0 017.5 9.5a.48.48 0 01.352.148A.48.48 0 018 10v2.078c0 .5.036 1.013.11 1.54.072.525.223 1.002.453 1.429.229.427.56.776.992 1.047.432.27 1.002.406 1.71.406h1.485c.552 0 1.031-.091 1.438-.273a2.489 2.489 0 001.007-.82c.266-.365.466-.826.602-1.384.135-.557.203-1.205.203-1.945V10a.48.48 0 01.148-.352.48.48 0 01.352-.148z" fill="currentColor" stroke="none" stroke-width="1" fill-rule="evenodd"></path>
</svg>