<svg width="1em" height="1em" viewBox="0 0 24 24" class="Twilio-Icon-Content">
  <path d="M19.641 4c.164 0 .27.064.317.193.047.13.023.305-.07.528l-7.19 16.77a.761.761 0 01-.237.36.501.501 0 01-.308.114.494.494 0 01-.281-.097.989.989 0 01-.264-.29L8.76 16.92a4.609 4.609 0 00-.73-.905 5.269 5.269 0 00-.904-.747L2.38 12.314c-.27-.175-.396-.372-.378-.588.017-.217.172-.39.465-.519l16.788-7.12c.07-.023.137-.043.202-.06A.701.701 0 0119.64 4zM7.723 14.266c.117.07.238.155.36.255.124.1.25.208.379.325l8.314-8.455-12.902 5.484 3.85 2.39zm4.342 5.818l5.52-12.92-8.332 8.473c.105.117.202.234.29.351.088.117.16.235.22.352l2.302 3.744z" fill="currentColor" stroke="none" stroke-width="1" fill-rule="evenodd"></path>
</svg>