<svg width="1em" height="1em" viewBox="0 0 24 24" class="Twilio-Icon-Content">
  <g stroke="none" stroke-width="1" fill="none" fill-rule="evenodd">
    <path d="M0 0h24v24H0z"></path>
    <path d="M15.656 17.05l.422.234c.281.156.422.359.422.609v1.264c0 .24-.083.44-.25.601a.825.825 0 01-.594.242H4.844a.825.825 0 01-.594-.242.803.803 0 01-.25-.6v-1.265c0-.23.14-.427.422-.593l.422-.25L8.078 15.3c-.594-.468-1.005-1.092-1.234-1.873-.23-.78-.344-1.4-.344-1.857V9.463c0-.353.11-.705.328-1.053.219-.349.505-.664.86-.945a4.66 4.66 0 011.21-.686 3.734 3.734 0 011.368-.266c.468 0 .927.089 1.375.266.448.176.846.405 1.195.686.349.281.63.596.844.945.213.348.32.7.32 1.053v2.108c0 .51-.102 1.144-.305 1.904s-.596 1.374-1.18 1.842l3.141 1.733zM15.5 19v-.89a.417.417 0 00-.11-.078l-.124-.062a.076.076 0 01-.04-.016.51.51 0 00-.054-.031l-3.14-1.733a1.056 1.056 0 01-.36-.335.92.92 0 01-.156-.46.911.911 0 01.07-.485.973.973 0 01.305-.39c.427-.333.718-.81.875-1.428.156-.62.234-1.127.234-1.522V9.463c0-.364-.273-.78-.82-1.248a2.852 2.852 0 00-1.914-.703c-.709 0-1.347.234-1.914.703-.568.468-.852.884-.852 1.248v2.108c0 .395.094.902.281 1.522.188.619.495 1.095.922 1.428.125.104.221.234.29.39a.911.911 0 01.07.484.92.92 0 01-.157.46.922.922 0 01-.36.32L5.314 17.94a.07.07 0 00-.032.007.122.122 0 00-.031.024.433.433 0 00-.133.062L5 18.111v.89h10.5zm3.656-4.433l.422.234c.281.156.422.359.422.609v1.249c0 .239-.083.44-.25.6a.825.825 0 01-.594.242H17.5a5.72 5.72 0 00-.195-.577 1.015 1.015 0 00-.32-.422H19v-.89a4.483 4.483 0 00-.11-.07.436.436 0 00-.124-.054.098.098 0 00-.04-.024.429.429 0 01-.054-.023l-3.188-1.733a1.056 1.056 0 01-.359-.335.92.92 0 01-.156-.46.911.911 0 01.07-.485.973.973 0 01.305-.39c.427-.343.726-.825.898-1.444.172-.62.258-1.121.258-1.506V6.98c0-.374-.281-.796-.844-1.264a2.941 2.941 0 00-1.937-.702 3.181 3.181 0 00-1.906.64 2.457 2.457 0 00-.626-.11 270.4 270.4 0 01-.64-.03 4.506 4.506 0 011.406-1.078A3.852 3.852 0 0113.72 4c.469 0 .93.091 1.383.273.453.182.856.414 1.21.695.355.28.641.598.86.952.219.354.328.708.328 1.061V9.09c0 .5-.11 1.131-.328 1.896-.219.765-.62 1.377-1.203 1.835l3.187 1.748z" fill="currentColor"></path>
  </g>
</svg>